# xmcd CD database file
#
# Track frame offsets:
#	150
#	50702
#	64177
#	92169
#	98517
#	121334
#	129869
#	152708
#	167595
#	181687
#	216572
#	225338
#	249754
#
# Disc length: 3502 seconds
#
# Revision: 1
# Processed by: cddbd v1.5.2PL0 Copyright (c) Steve Scherf et al.
# Submitted via: CDex 1.51
#
DISCID=a00dac0d
DTITLE=Stanley Clarke - The Toys Of Men
DYEAR=2007
DGENRE=Jazz
TTITLE0=The Toys Of Men, Part.I-Draconian,Part.II-Fear,Part.III-Chaos,Part.IV-Cosmic Intervention,Part.V-The Openening Of The Gates,Part.VI-God Light
TTITLE1=Come On 
TTITLE2=Jerusalem
TTITLE3=Back In The Woods 
TTITLE4=All Over Again
TTITLE5=Hmm Hmm 
TTITLE6=Bad Asses 
TTITLE7=Game 
TTITLE8=La Cancion De Sofia 
TTITLE9=El Bajo Negro
TTITLE10=Broski 
TTITLE11=Châteauvallon 1972 (Dedicated To Tony Williams)
TTITLE12=Bass Folk Song N°6
EXTD=YEAR: 2007
EXTT0=
EXTT1=
EXTT2=
EXTT3=
EXTT4=
EXTT5=
EXTT6=
EXTT7=
EXTT8=
EXTT9=
EXTT10=
EXTT11=
EXTT12=
PLAYORDER=
